<?xml version="1.0" standalone="no"?>
<svg xmlns:xlink="http://www.w3.org/1999/xlink" id="wave" style="transform:rotate(0deg); transition: 0.3s" viewBox="0 0 1440 310" version="1.1" xmlns="http://www.w3.org/2000/svg"><defs><linearGradient id="sw-gradient-0" x1="0" x2="0" y1="1" y2="0"><stop stop-color="rgba(26, 75, 138, 1)" offset="0%"/><stop stop-color="rgba(26, 75, 138, 1)" offset="100%"/></linearGradient></defs><path style="transform:translate(0, 0px); opacity:1" fill="url(#sw-gradient-0)" d="M0,279L26.7,273.8C53.3,269,107,258,160,242.8C213.3,227,267,207,320,191.2C373.3,176,427,165,480,139.5C533.3,114,587,72,640,82.7C693.3,93,747,155,800,180.8C853.3,207,907,196,960,165.3C1013.3,134,1067,83,1120,56.8C1173.3,31,1227,31,1280,41.3C1333.3,52,1387,72,1440,77.5C1493.3,83,1547,72,1600,72.3C1653.3,72,1707,83,1760,118.8C1813.3,155,1867,217,1920,248C1973.3,279,2027,279,2080,279C2133.3,279,2187,279,2240,273.8C2293.3,269,2347,258,2400,253.2C2453.3,248,2507,248,2560,242.8C2613.3,238,2667,227,2720,196.3C2773.3,165,2827,114,2880,124C2933.3,134,2987,207,3040,237.7C3093.3,269,3147,258,3200,242.8C3253.3,227,3307,207,3360,211.8C3413.3,217,3467,248,3520,258.3C3573.3,269,3627,258,3680,258.3C3733.3,258,3787,269,3813,273.8L3840,279L3840,310L3813.3,310C3786.7,310,3733,310,3680,310C3626.7,310,3573,310,3520,310C3466.7,310,3413,310,3360,310C3306.7,310,3253,310,3200,310C3146.7,310,3093,310,3040,310C2986.7,310,2933,310,2880,310C2826.7,310,2773,310,2720,310C2666.7,310,2613,310,2560,310C2506.7,310,2453,310,2400,310C2346.7,310,2293,310,2240,310C2186.7,310,2133,310,2080,310C2026.7,310,1973,310,1920,310C1866.7,310,1813,310,1760,310C1706.7,310,1653,310,1600,310C1546.7,310,1493,310,1440,310C1386.7,310,1333,310,1280,310C1226.7,310,1173,310,1120,310C1066.7,310,1013,310,960,310C906.7,310,853,310,800,310C746.7,310,693,310,640,310C586.7,310,533,310,480,310C426.7,310,373,310,320,310C266.7,310,213,310,160,310C106.7,310,53,310,27,310L0,310Z"/><defs><linearGradient id="sw-gradient-1" x1="0" x2="0" y1="1" y2="0"><stop stop-color="rgba(29, 161, 242, 1)" offset="0%"/><stop stop-color="rgba(29, 161, 242, 1)" offset="100%"/></linearGradient></defs><path style="transform:translate(0, 50px); opacity:0.9" fill="url(#sw-gradient-1)" d="M0,248L26.7,211.8C53.3,176,107,103,160,87.8C213.3,72,267,114,320,144.7C373.3,176,427,196,480,201.5C533.3,207,587,196,640,175.7C693.3,155,747,124,800,113.7C853.3,103,907,114,960,103.3C1013.3,93,1067,62,1120,82.7C1173.3,103,1227,176,1280,211.8C1333.3,248,1387,248,1440,217C1493.3,186,1547,124,1600,87.8C1653.3,52,1707,41,1760,72.3C1813.3,103,1867,176,1920,175.7C1973.3,176,2027,103,2080,108.5C2133.3,114,2187,196,2240,201.5C2293.3,207,2347,134,2400,129.2C2453.3,124,2507,186,2560,201.5C2613.3,217,2667,186,2720,155C2773.3,124,2827,93,2880,67.2C2933.3,41,2987,21,3040,31C3093.3,41,3147,83,3200,87.8C3253.3,93,3307,62,3360,46.5C3413.3,31,3467,31,3520,31C3573.3,31,3627,31,3680,56.8C3733.3,83,3787,134,3813,160.2L3840,186L3840,310L3813.3,310C3786.7,310,3733,310,3680,310C3626.7,310,3573,310,3520,310C3466.7,310,3413,310,3360,310C3306.7,310,3253,310,3200,310C3146.7,310,3093,310,3040,310C2986.7,310,2933,310,2880,310C2826.7,310,2773,310,2720,310C2666.7,310,2613,310,2560,310C2506.7,310,2453,310,2400,310C2346.7,310,2293,310,2240,310C2186.7,310,2133,310,2080,310C2026.7,310,1973,310,1920,310C1866.7,310,1813,310,1760,310C1706.7,310,1653,310,1600,310C1546.7,310,1493,310,1440,310C1386.7,310,1333,310,1280,310C1226.7,310,1173,310,1120,310C1066.7,310,1013,310,960,310C906.7,310,853,310,800,310C746.7,310,693,310,640,310C586.7,310,533,310,480,310C426.7,310,373,310,320,310C266.7,310,213,310,160,310C106.7,310,53,310,27,310L0,310Z"/><defs><linearGradient id="sw-gradient-2" x1="0" x2="0" y1="1" y2="0"><stop stop-color="rgba(225, 232, 237, 1)" offset="0%"/><stop stop-color="rgba(225, 232, 237, 1)" offset="100%"/></linearGradient></defs><path style="transform:translate(0, 100px); opacity:0.8" fill="url(#sw-gradient-2)" d="M0,248L26.7,242.8C53.3,238,107,227,160,217C213.3,207,267,196,320,160.2C373.3,124,427,62,480,62C533.3,62,587,124,640,139.5C693.3,155,747,124,800,139.5C853.3,155,907,217,960,232.5C1013.3,248,1067,217,1120,191.2C1173.3,165,1227,145,1280,144.7C1333.3,145,1387,165,1440,144.7C1493.3,124,1547,62,1600,56.8C1653.3,52,1707,103,1760,129.2C1813.3,155,1867,155,1920,160.2C1973.3,165,2027,176,2080,160.2C2133.3,145,2187,103,2240,98.2C2293.3,93,2347,124,2400,134.3C2453.3,145,2507,134,2560,129.2C2613.3,124,2667,124,2720,103.3C2773.3,83,2827,41,2880,56.8C2933.3,72,2987,145,3040,165.3C3093.3,186,3147,155,3200,160.2C3253.3,165,3307,207,3360,206.7C3413.3,207,3467,165,3520,134.3C3573.3,103,3627,83,3680,67.2C3733.3,52,3787,41,3813,36.2L3840,31L3840,310L3813.3,310C3786.7,310,3733,310,3680,310C3626.7,310,3573,310,3520,310C3466.7,310,3413,310,3360,310C3306.7,310,3253,310,3200,310C3146.7,310,3093,310,3040,310C2986.7,310,2933,310,2880,310C2826.7,310,2773,310,2720,310C2666.7,310,2613,310,2560,310C2506.7,310,2453,310,2400,310C2346.7,310,2293,310,2240,310C2186.7,310,2133,310,2080,310C2026.7,310,1973,310,1920,310C1866.7,310,1813,310,1760,310C1706.7,310,1653,310,1600,310C1546.7,310,1493,310,1440,310C1386.7,310,1333,310,1280,310C1226.7,310,1173,310,1120,310C1066.7,310,1013,310,960,310C906.7,310,853,310,800,310C746.7,310,693,310,640,310C586.7,310,533,310,480,310C426.7,310,373,310,320,310C266.7,310,213,310,160,310C106.7,310,53,310,27,310L0,310Z"/></svg>